<svg width="24" height="24" viewBox="0 0 24 24" fill="none" xmlns="http://www.w3.org/2000/svg">
<circle cx="12" cy="12" r="10" stroke="black" stroke-width="2"/>
<mask id="path-2-outside-1_188_1572" maskUnits="userSpaceOnUse" x="8" y="4" width="8" height="8" fill="black">
<rect fill="white" x="8" y="4" width="8" height="8"/>
<path d="M14 8C14 9.10457 13.1046 10 12 10C10.8954 10 10 9.10457 10 8C10 6.89543 10.8954 6 12 6C13.1046 6 14 6.89543 14 8Z"/>
</mask>
<path d="M12 8V12C14.2091 12 16 10.2091 16 8H12ZM12 8H8C8 10.2091 9.79086 12 12 12V8ZM12 8V4C9.79086 4 8 5.79086 8 8H12ZM12 8H16C16 5.79086 14.2091 4 12 4V8Z" fill="black" mask="url(#path-2-outside-1_188_1572)"/>
<mask id="path-4-inside-2_188_1572" fill="white">
<path fill-rule="evenodd" clip-rule="evenodd" d="M9.25 15H14.75C16.5449 15 18 16.4551 18 18.25C18 18.5081 17.9699 18.7592 17.913 19H19.9468C19.9819 18.755 20 18.5046 20 18.25C20 15.3505 17.6495 13 14.75 13H9.25C6.35051 13 4 15.3505 4 18.25C4 18.5046 4.01813 18.755 4.05317 19H6.08697C6.03009 18.7592 6 18.5081 6 18.25C6 16.4551 7.45507 15 9.25 15Z"/>
</mask>
<path d="M17.913 19L15.9666 18.5402L15.3856 21H17.913V19ZM19.9468 19V21H21.6811L21.9267 19.2832L19.9468 19ZM4.05317 19L2.07332 19.2832L2.31889 21H4.05317V19ZM6.08697 19V21H8.61444L8.0334 18.5402L6.08697 19ZM14.75 13H9.25V17H14.75V13ZM20 18.25C20 15.3505 17.6495 13 14.75 13V17C15.4404 17 16 17.5596 16 18.25H20ZM19.8595 19.4598C19.9517 19.0694 20 18.6641 20 18.25H16C16 18.3522 15.9881 18.449 15.9666 18.5402L19.8595 19.4598ZM17.913 21H19.9468V17H17.913V21ZM21.9267 19.2832C21.9751 18.9447 22 18.5997 22 18.25H18C18 18.4096 17.9886 18.5654 17.967 18.7168L21.9267 19.2832ZM22 18.25C22 14.2459 18.7541 11 14.75 11V15C16.5449 15 18 16.4551 18 18.25H22ZM14.75 11H9.25V15H14.75V11ZM9.25 11C5.24594 11 2 14.2459 2 18.25H6C6 16.4551 7.45507 15 9.25 15V11ZM2 18.25C2 18.5997 2.0249 18.9447 2.07332 19.2832L6.03302 18.7168C6.01135 18.5654 6 18.4096 6 18.25H2ZM4.05317 21H6.08697V17H4.05317V21ZM4 18.25C4 18.6641 4.04833 19.0694 4.14053 19.4598L8.0334 18.5402C8.01186 18.449 8 18.3522 8 18.25H4ZM9.25 13C6.35051 13 4 15.3505 4 18.25H8C8 17.5596 8.55964 17 9.25 17V13Z" fill="black" mask="url(#path-4-inside-2_188_1572)"/>
</svg>
