<svg width="24" height="24" viewBox="0 0 24 24" fill="none" xmlns="http://www.w3.org/2000/svg">
<mask id="path-1-inside-1_188_1573" fill="white">
<path fill-rule="evenodd" clip-rule="evenodd" d="M12.758 3.23869C12.3843 2.92048 11.835 2.92048 11.4613 3.23869L2.35364 10.9948C1.64561 11.5977 2.07201 12.7561 3.002 12.7561H3.83236V19.588C3.83236 20.1403 4.28007 20.588 4.83236 20.588H9.92692C10.4792 20.588 10.9269 20.1403 10.9269 19.588V15.1462H13.2916V19.588C13.2916 20.1403 13.7394 20.588 14.2916 20.588H19.3862C19.9385 20.588 20.3862 20.1403 20.3862 19.588V12.7561H21.2173C22.1473 12.7561 22.5737 11.5977 21.8657 10.9948L12.758 3.23869Z"/>
</mask>
<path d="M11.4613 3.23869L12.758 4.76137L12.758 4.76137L11.4613 3.23869ZM12.758 3.23869L11.4613 4.76137L11.4613 4.76137L12.758 3.23869ZM2.35364 10.9948L1.05693 9.47209L1.05693 9.47209L2.35364 10.9948ZM3.83236 12.7561H5.83236C5.83236 11.6515 4.93693 10.7561 3.83236 10.7561V12.7561ZM10.9269 15.1462V13.1462C9.82236 13.1462 8.92693 14.0416 8.92693 15.1462H10.9269ZM13.2916 15.1462H15.2916C15.2916 14.0416 14.3962 13.1462 13.2916 13.1462V15.1462ZM20.3862 12.7561V10.7561C19.2816 10.7561 18.3862 11.6515 18.3862 12.7561H20.3862ZM21.8657 10.9948L20.569 12.5174L21.8657 10.9948ZM12.758 4.76137C12.3843 5.07958 11.835 5.07959 11.4613 4.76137L14.0547 1.71602C12.9337 0.761367 11.2856 0.761369 10.1646 1.71602L12.758 4.76137ZM3.65036 12.5174L12.758 4.76137L10.1646 1.71602L1.05693 9.47209L3.65036 12.5174ZM3.002 10.7561C3.93199 10.7561 4.3584 11.9145 3.65036 12.5174L1.05693 9.47209C-1.06718 11.281 0.212025 14.7561 3.002 14.7561V10.7561ZM3.83236 10.7561H3.002V14.7561H3.83236V10.7561ZM5.83236 19.588V12.7561H1.83236V19.588H5.83236ZM4.83236 18.588C5.38465 18.588 5.83236 19.0357 5.83236 19.588H1.83236C1.83236 21.2448 3.1755 22.588 4.83236 22.588V18.588ZM9.92692 18.588H4.83236V22.588H9.92692V18.588ZM8.92693 19.588C8.92693 19.0357 9.37464 18.588 9.92692 18.588V22.588C11.5838 22.588 12.9269 21.2449 12.9269 19.588H8.92693ZM8.92693 15.1462V19.588H12.9269V15.1462H8.92693ZM13.2916 13.1462H10.9269V17.1462H13.2916V13.1462ZM15.2916 19.588V15.1462H11.2916V19.588H15.2916ZM14.2916 18.588C14.8439 18.588 15.2916 19.0357 15.2916 19.588H11.2916C11.2916 21.2449 12.6348 22.588 14.2916 22.588V18.588ZM19.3862 18.588H14.2916V22.588H19.3862V18.588ZM18.3862 19.588C18.3862 19.0357 18.8339 18.588 19.3862 18.588V22.588C21.0431 22.588 22.3862 21.2449 22.3862 19.588H18.3862ZM18.3862 12.7561V19.588H22.3862V12.7561H18.3862ZM21.2173 10.7561H20.3862V14.7561H21.2173V10.7561ZM20.569 12.5174C19.8609 11.9145 20.2873 10.7561 21.2173 10.7561V14.7561C24.0073 14.7561 25.2865 11.281 23.1624 9.47209L20.569 12.5174ZM11.4613 4.76137L20.569 12.5174L23.1624 9.47209L14.0547 1.71602L11.4613 4.76137Z" fill="currentColor" mask="url(#path-1-inside-1_188_1573)"/>
</svg>
