<svg width="16" height="16" viewBox="0 0 16 16" fill="none" xmlns="http://www.w3.org/2000/svg">
<g clip-path="url(#clip0_411_8246)">
<g clip-path="url(#clip1_411_8246)">
<path d="M2.66666 13V9C2.66666 7.58551 3.22856 6.22896 4.22876 5.22876C5.22895 4.22857 6.58551 3.66667 7.99999 3.66667C9.41448 3.66667 10.771 4.22857 11.7712 5.22876C12.7714 6.22896 13.3333 7.58551 13.3333 9V13H14V14.3333H1.99999V13H2.66666ZM3.99999 9H5.33333C5.33333 8.29276 5.61428 7.61448 6.11438 7.11438C6.61447 6.61428 7.29275 6.33333 7.99999 6.33333V5C6.93913 5 5.92171 5.42143 5.17157 6.17157C4.42142 6.92172 3.99999 7.93913 3.99999 9ZM7.33333 1H8.66666V3H7.33333V1ZM13.1853 2.872L14.128 3.81467L12.7147 5.22867L11.7713 4.286L13.1853 2.872ZM1.87199 3.81467L2.81466 2.872L4.22866 4.28533L3.28666 5.22933L1.87199 3.81467Z" fill="#FF9F2E"/>
</g>
</g>
<defs>
<clipPath id="clip0_411_8246">
<rect width="16" height="16" fill="white"/>
</clipPath>
<clipPath id="clip1_411_8246">
<rect width="16" height="16" fill="white" transform="translate(0 -0.333008)"/>
</clipPath>
</defs>
</svg>
