<svg width="20" height="20" viewBox="0 0 20 20" fill="none" xmlns="http://www.w3.org/2000/svg">
<path d="M16.0415 6.66663L18.1665 3.83329C18.2591 3.70943 18.3155 3.56224 18.3293 3.40819C18.3431 3.25413 18.3137 3.09928 18.2446 2.96094C18.1754 2.8226 18.0691 2.70622 17.9376 2.62481C17.8061 2.5434 17.6545 2.50018 17.4998 2.49996H7.49984C7.49984 2.27895 7.41204 2.06698 7.25576 1.9107C7.09948 1.75442 6.88752 1.66663 6.6665 1.66663C6.44549 1.66663 6.23353 1.75442 6.07725 1.9107C5.92097 2.06698 5.83317 2.27895 5.83317 2.49996V16.6666H4.99984C4.77882 16.6666 4.56686 16.7544 4.41058 16.9107C4.2543 17.067 4.1665 17.2789 4.1665 17.5C4.1665 17.721 4.2543 17.9329 4.41058 18.0892C4.56686 18.2455 4.77882 18.3333 4.99984 18.3333H8.33317C8.55418 18.3333 8.76615 18.2455 8.92243 18.0892C9.07871 17.9329 9.1665 17.721 9.1665 17.5C9.1665 17.2789 9.07871 17.067 8.92243 16.9107C8.76615 16.7544 8.55418 16.6666 8.33317 16.6666H7.49984V10.8333H17.4998C17.6545 10.8331 17.8061 10.7898 17.9376 10.7084C18.0691 10.627 18.1754 10.5107 18.2446 10.3723C18.3137 10.234 18.3431 10.0791 18.3293 9.92507C18.3155 9.77101 18.2591 9.62383 18.1665 9.49996L16.0415 6.66663Z" fill="currentColor"/>
</svg>
