<svg width="21" height="20" viewBox="0 0 21 20" fill="none" xmlns="http://www.w3.org/2000/svg">
<path d="M17.9205 2.49243H15.6819V1.74621C15.6819 1.54831 15.6032 1.3585 15.4633 1.21856C15.3233 1.07862 15.1335 1 14.9356 1C14.7377 1 14.5479 1.07862 14.408 1.21856C14.268 1.3585 14.1894 1.54831 14.1894 1.74621V2.49243H11.2046V1.74621C11.2046 1.54831 11.1259 1.3585 10.986 1.21856C10.8461 1.07862 10.6563 1 10.4584 1C10.2604 1 10.0706 1.07862 9.9307 1.21856C9.79076 1.3585 9.71214 1.54831 9.71214 1.74621V2.49243H6.72728V1.74621C6.72728 1.54831 6.64866 1.3585 6.50872 1.21856C6.36878 1.07862 6.17898 1 5.98107 1C5.78316 1 5.59336 1.07862 5.45342 1.21856C5.31347 1.3585 5.23486 1.54831 5.23486 1.74621V2.49243H2.99621C2.79831 2.49243 2.6085 2.57105 2.46856 2.71099C2.32862 2.85093 2.25 3.04073 2.25 3.23864V6.96971H18.6667V3.23864C18.6667 3.04073 18.5881 2.85093 18.4481 2.71099C18.3082 2.57105 18.1184 2.49243 17.9205 2.49243Z" fill="currentColor"/>
<path d="M2.25 16.6701C2.25 16.8681 2.32862 17.0579 2.46856 17.1978C2.6085 17.3377 2.79831 17.4164 2.99621 17.4164H17.9205C18.1184 17.4164 18.3082 17.3377 18.4481 17.1978C18.5881 17.0579 18.6667 16.8681 18.6667 16.6701V8.46179H2.25V16.6701Z" fill="currentColor"/>
</svg>
