<svg width="24" height="24" viewBox="0 0 24 24" fill="none" xmlns="http://www.w3.org/2000/svg">
<mask id="path-1-outside-1_210_1391" maskUnits="userSpaceOnUse" x="5" y="4" width="8" height="8" fill="black">
<rect fill="white" x="5" y="4" width="8" height="8"/>
<path d="M11 8C11 9.10457 10.1046 10 9 10C7.89543 10 7 9.10457 7 8C7 6.89543 7.89543 6 9 6C10.1046 6 11 6.89543 11 8Z"/>
</mask>
<path d="M9 8V12C11.2091 12 13 10.2091 13 8H9ZM9 8H5C5 10.2091 6.79086 12 9 12V8ZM9 8V4C6.79086 4 5 5.79086 5 8H9ZM9 8H13C13 5.79086 11.2091 4 9 4V8Z" fill="black" mask="url(#path-1-outside-1_210_1391)"/>
<mask id="path-3-inside-2_210_1391" fill="white">
<path fill-rule="evenodd" clip-rule="evenodd" d="M6.25 15H11.75C13.5449 15 15 16.4551 15 18.25C15 18.5081 14.9699 18.7592 14.913 19H16.9468C16.9819 18.755 17 18.5046 17 18.25C17 15.3505 14.6495 13 11.75 13H6.25C3.35051 13 1 15.3505 1 18.25C1 18.5046 1.01813 18.755 1.05317 19H3.08697C3.03009 18.7592 3 18.5081 3 18.25C3 16.4551 4.45507 15 6.25 15Z"/>
</mask>
<path d="M14.913 19L12.9666 18.5402L12.3856 21H14.913V19ZM16.9468 19V21H18.6811L18.9267 19.2832L16.9468 19ZM1.05317 19L-0.926682 19.2832L-0.681112 21H1.05317V19ZM3.08697 19V21H5.61444L5.0334 18.5402L3.08697 19ZM11.75 13H6.25V17H11.75V13ZM17 18.25C17 15.3505 14.6495 13 11.75 13V17C12.4404 17 13 17.5596 13 18.25H17ZM16.8595 19.4598C16.9517 19.0694 17 18.6641 17 18.25H13C13 18.3522 12.9881 18.449 12.9666 18.5402L16.8595 19.4598ZM14.913 21H16.9468V17H14.913V21ZM18.9267 19.2832C18.9751 18.9447 19 18.5997 19 18.25H15C15 18.4096 14.9886 18.5654 14.967 18.7168L18.9267 19.2832ZM19 18.25C19 14.2459 15.7541 11 11.75 11V15C13.5449 15 15 16.4551 15 18.25H19ZM11.75 11H6.25V15H11.75V11ZM6.25 11C2.24594 11 -1 14.2459 -1 18.25H3C3 16.4551 4.45507 15 6.25 15V11ZM-1 18.25C-1 18.5997 -0.975096 18.9447 -0.926682 19.2832L3.03302 18.7168C3.01135 18.5654 3 18.4096 3 18.25H-1ZM1.05317 21H3.08697V17H1.05317V21ZM1 18.25C1 18.6641 1.04833 19.0694 1.14053 19.4598L5.0334 18.5402C5.01186 18.449 5 18.3522 5 18.25H1ZM6.25 13C3.35051 13 1 15.3505 1 18.25H5C5 17.5596 5.55964 17 6.25 17V13Z" fill="black" mask="url(#path-3-inside-2_210_1391)"/>
<path d="M19 8V16" stroke="black" stroke-width="2"/>
<path d="M23 12L15 12" stroke="black" stroke-width="2"/>
</svg>
