<svg width="24" height="24" viewBox="0 0 24 24" fill="none" xmlns="http://www.w3.org/2000/svg">
<path d="M8.9375 17L8.9375 14L8.9375 11" stroke="currentColor" stroke-width="2" stroke-linecap="round"/>
<path d="M12.0171 17L12.0171 14L12.0171 11" stroke="currentColor" stroke-width="2" stroke-linecap="round"/>
<path d="M15.0967 17L15.0967 14L15.0967 11" stroke="currentColor" stroke-width="2" stroke-linecap="round"/>
<path d="M2.77783 6.9375H21.0001" stroke="currentColor" stroke-width="2" stroke-linecap="round"/>
<path d="M5 7H19V19C19 20.1046 18.1046 21 17 21H7C5.89543 21 5 20.1046 5 19V7Z" stroke="currentColor" stroke-width="2" stroke-linejoin="round"/>
<path d="M8.52546 4.1088L7.39746 6.375H16.6369L15.5089 4.1088C15.1708 3.42946 14.4773 3 13.7184 3H10.3159C9.55708 3 8.8636 3.42946 8.52546 4.1088Z" stroke="currentColor" stroke-width="2" stroke-linejoin="round"/>
</svg>
