<svg width="16" height="16" viewBox="0 0 16 16" fill="none" xmlns="http://www.w3.org/2000/svg">
<g clip-path="url(#clip0_411_7905)">
<path d="M6 2H10L11.3333 3.33333H14C14.1768 3.33333 14.3464 3.40357 14.4714 3.5286C14.5964 3.65362 14.6667 3.82319 14.6667 4V13.3333C14.6667 13.5101 14.5964 13.6797 14.4714 13.8047C14.3464 13.9298 14.1768 14 14 14H2C1.82319 14 1.65362 13.9298 1.5286 13.8047C1.40357 13.6797 1.33333 13.5101 1.33333 13.3333V4C1.33333 3.82319 1.40357 3.65362 1.5286 3.5286C1.65362 3.40357 1.82319 3.33333 2 3.33333H4.66667L6 2ZM9.78933 12.2453L9.19267 11.052C8.78609 11.2553 8.33428 11.3513 7.88016 11.3309C7.42604 11.3105 6.98468 11.1743 6.59799 10.9353C6.21131 10.6963 5.89214 10.3624 5.6708 9.96535C5.44946 9.56829 5.33329 9.12125 5.33333 8.66667H6.66733L5.226 5.78467C4.53636 6.4478 4.10725 7.33615 4.01651 8.28857C3.92576 9.24099 4.1794 10.1944 4.7314 10.9758C5.2834 11.7572 6.0972 12.3149 7.02518 12.5477C7.95316 12.7805 8.93385 12.6737 9.78933 12.2453ZM6.21067 5.088L6.80733 6.28133C7.21391 6.07802 7.66572 5.98202 8.11984 6.00245C8.57396 6.02288 9.01532 6.15906 9.40201 6.39806C9.78869 6.63705 10.1079 6.97093 10.3292 7.36799C10.5505 7.76504 10.6667 8.21209 10.6667 8.66667H9.33267L10.7733 11.5487C11.463 10.8855 11.8921 9.99719 11.9828 9.04477C12.0736 8.09235 11.8199 7.13895 11.2679 6.35751C10.7159 5.57608 9.90213 5.01839 8.97415 4.78559C8.04617 4.5528 7.06549 4.66032 6.21 5.08867L6.21067 5.088Z" fill="#72787F"/>
</g>
<defs>
<clipPath id="clip0_411_7905">
<rect width="16" height="16" fill="white"/>
</clipPath>
</defs>
</svg>
