<svg width="21" height="20" viewBox="0 0 21 20" fill="none" xmlns="http://www.w3.org/2000/svg">
<g clip-path="url(#clip0_439_10922)">
<path d="M10.4998 13.0963C7.70709 13.0963 5.43506 15.3683 5.43506 18.161C5.43506 18.3226 5.44299 18.4824 5.45795 18.64C6.97147 19.5267 8.69907 20 10.4998 20C12.3004 20 14.028 19.5267 15.5416 18.64C15.5565 18.4822 15.5645 18.3226 15.5645 18.161C15.5645 15.3683 13.2924 13.0963 10.4998 13.0963Z" fill="currentColor"/>
<path d="M17.5711 2.92892C15.6823 1.04019 13.1712 0 10.5 0C7.8288 0 5.31766 1.04019 3.42892 2.92892C1.54019 4.81766 0.5 7.3288 0.5 10C0.5 12.6711 1.54019 15.1823 3.42892 17.0711C3.69778 17.3401 3.97977 17.5911 4.27258 17.825C4.40366 15.3696 5.96158 13.2869 8.13016 12.3927C6.93814 11.6156 6.1485 10.2708 6.1485 8.74481C6.1485 6.34537 8.10056 4.39331 10.5 4.39331C12.8994 4.39331 14.8515 6.34537 14.8515 8.74481C14.8515 10.2708 14.0619 11.6156 12.8698 12.3927C15.0384 13.2869 16.5963 15.3696 16.7274 17.825C17.0202 17.5911 17.3022 17.3399 17.5711 17.0711C19.4598 15.1823 20.5 12.6711 20.5 10C20.5 7.3288 19.4598 4.81766 17.5711 2.92892Z" fill="currentColor"/>
<path d="M13.6796 8.74481C13.6796 6.99142 12.2532 5.56519 10.4999 5.56519C8.7467 5.56519 7.32031 6.99158 7.32031 8.74481C7.32031 10.498 8.7467 11.9244 10.4999 11.9244C12.2532 11.9244 13.6796 10.498 13.6796 8.74481Z" fill="currentColor"/>
</g>
<defs>
<clipPath id="clip0_439_10922">
<rect width="20" height="20" fill="white" transform="translate(0.5)"/>
</clipPath>
</defs>
</svg>
